<?xml version="1.0" encoding="UTF-8"?>
<svg fill="#FFFFFF" version="1.1" viewBox="0 0 24 24" xmlns="http://www.w3.org/2000/svg">
<path d="M0 0h24v24H0z" fill="none"/>
<path d="M7 18c-1.1 0-1.99.9-1.99 2S5.9 22 7 22s2-.9 2-2-.9-2-2-2zM1 2v2h2l3.6 7.59-1.35 2.45c-.16.28-.25.61-.25.96 0 1.1.9 2 2 2h12v-2H7.42c-.14 0-.25-.11-.25-.25l.03-.12.9-1.63h7.45c.75 0 1.41-.41 1.75-1.03l3.58-6.49c.08-.14.12-.31.12-.48 0-.55-.45-1-1-1H5.21l-.94-2H1zm16 16c-1.1 0-1.99.9-1.99 2s.89 2 1.99 2 2-.9 2-2-.9-2-2-2z"/>
<path d="m6.6008 16.942c-0.69944-0.1499-1.2518-0.64766-1.4937-1.346-0.068764-0.19856-0.076343-0.25736-0.076343-0.59242 0-0.33568 0.00747-0.39341 0.076557-0.59149 0.045594-0.13073 0.35933-0.73253 0.77571-1.4879 0.38453-0.69764 0.70576-1.287 0.71385-1.3098 0.00808-0.02273-0.79438-1.7463-1.7832-3.8301l-1.7979-3.7887-1.9962-0.014465v-1.9557h3.245l0.92951 1.9833 7.4408 2.971e-4c8.2398 3.29e-4 7.6196-0.013718 7.9115 0.1792 0.16804 0.11105 0.25575 0.21932 0.35722 0.44097 0.08527 0.18626 0.10151 0.46925 0.03795 0.66142-0.03917 0.11841-3.647 6.6749-3.7768 6.8636-0.14505 0.21082-0.4772 0.49305-0.72088 0.61253-0.46422 0.22761-0.08109 0.20885-4.4586 0.21825l-3.8999 0.0084-0.4606 0.83448c-0.50385 0.9128-0.52594 0.97509-0.39297 1.1081l0.067634 0.06763h11.686v1.9839l-6.0964-0.0022c-5.2891-0.0019-6.1218-0.0077-6.2879-0.04328z" fill="#2fc18f"/>
<path d="m16.511 21.919c-0.97034-0.25424-1.6247-1.2477-1.461-2.2182 0.0751-0.44539 0.24737-0.78256 0.56122-1.0984 0.72316-0.72779 1.8456-0.78303 2.6465-0.13024 0.47362 0.38604 0.7567 1.0325 0.71874 1.6415-0.03151 0.50562-0.21054 0.89526-0.58369 1.2704-0.28439 0.2859-0.55447 0.44448-0.9133 0.53626-0.27939 0.07146-0.69294 0.07091-0.96847-0.0013z" fill="#2fc18f" stroke-width=".027554"/>
<path d="m6.5092 21.921c-0.77694-0.20965-1.3561-0.87416-1.4669-1.683-0.11108-0.8113 0.33919-1.6435 1.0885-2.0118 0.77438-0.38063 1.6424-0.23706 2.2605 0.37388 0.92529 0.91461 0.73511 2.4232-0.39179 3.1078-0.28872 0.17539-0.55296 0.24748-0.94559 0.25797-0.27694 0.0074-0.38369-0.0014-0.54477-0.04485z" fill="#2fc18f" stroke-width=".027554"/>
</svg>
